<svg width="275" height="290" viewBox="0 0 275 290" fill="none" xmlns="http://www.w3.org/2000/svg">
<path d="M106 83H168.498H230.997V109H106V83Z" fill="#121313"/>
<path d="M154 211.906V153.953V96H182.039V211.906H154Z" fill="#121313"/>
<path d="M271.846 267.653C271.846 267.653 263.705 275.373 227.844 284.041C191.984 292.71 153.688 291.903 118.423 281.736C83.1569 271.568 52.7233 252.561 31.465 227.425C10.2067 202.289 -0.790041 172.31 0.0441865 141.765C0.878414 111.221 13.5009 81.6723 36.1104 57.3362C58.7199 33.0001 90.161 15.1203 125.947 6.24829C161.732 -2.62371 200.034 -2.03447 235.385 7.93192C270.737 17.8983 275.211 28 274.993 23V89.138C260.585 72.3538 240.057 59.7162 216.336 53.0289C192.616 46.3415 166.916 45.9462 142.904 51.8992C118.892 57.8522 97.7957 69.8494 82.6249 86.1786C67.4542 102.508 58.9847 122.335 58.4249 142.83C57.8651 163.325 65.2438 183.44 79.5079 200.306C93.772 217.172 114.193 229.926 137.855 236.748C161.518 243.57 187.214 244.112 211.276 238.295C235.338 232.479 256.536 220.602 271.846 204.359V267.653Z" fill="black"/>
</svg>
