<svg width="400" height="400" viewBox="0 0 400 400" fill="none" xmlns="http://www.w3.org/2000/svg">
<path d="M0 38.7725H400V123.353H0V38.7725Z" fill="#3D72A4"/>
<path d="M319.878 27.3181C279.017 4.64263 242.651 -4.29159 195.478 1.92583C148.305 8.14326 104.878 29.1825 72.4878 61.5126C40.0971 93.8427 20.7133 135.496 17.5895 179.482C14.4656 223.468 27.7919 267.109 55.3317 303.082C82.8716 339.054 122.949 365.169 168.837 377.042C214.726 388.916 267.711 384.936 311.429 367.401C319.878 360.353 319.878 360.353 319.878 360.353V249.404C288.571 272.249 289.994 274.026 267.415 283.082C244.837 292.138 219.579 293.734 195.879 287.602C172.18 281.47 151.482 267.983 137.258 249.404C123.035 230.826 116.153 208.287 117.766 185.57C119.379 162.854 129.39 141.341 146.119 124.644C162.847 107.947 185.275 97.0813 209.638 93.8703C234.001 90.6593 258.817 95.2985 279.92 107.009C301.023 118.72 303.809 118.947 319.878 137.449V27.3181Z" fill="black"/>
<path d="M154.286 400V123.352H245.714V400H154.286Z" fill="#3D72A4"/>
</svg>
